<svg width="83" height="20" viewBox="0 0 83 20" fill="none" xmlns="http://www.w3.org/2000/svg">
<g clip-path="url(#clip0_2261_14)">
<path d="M81.84 18.84C81.4 19.28 80.87 19.5 80.25 19.5C79.63 19.5 79.1 19.28 78.66 18.84C78.22 18.4 78 17.87 78 17.25C78 16.63 78.21 16.1 78.63 15.66C79.07 15.22 79.61 15 80.25 15C80.87 15 81.4 15.22 81.84 15.66C82.28 16.1 82.5 16.63 82.5 17.25C82.5 17.87 82.28 18.4 81.84 18.84Z" fill="#CAFB3E"/>
<path d="M11.7049 12.2255L9.22091 5.62654C9.02018 5.11636 8.81527 4.46818 8.60618 3.682C8.51418 4.07509 8.41382 4.43891 8.30509 4.77345C8.19637 5.09963 8.096 5.38818 8.004 5.63909L5.52 12.2255H11.7049ZM17.2625 19H14.9918C14.7325 19 14.5235 18.9373 14.3645 18.8118C14.2056 18.678 14.0844 18.5149 14.0007 18.3225L12.4953 14.3331H4.71709L3.21164 18.3225C3.14473 18.4898 3.02764 18.6445 2.86036 18.7867C2.69309 18.9289 2.484 19 2.23309 19H-0.0376364L7.12582 0.934543H10.0991L17.2625 19ZM21.5674 0.432725V19H18.8701V0.432725H21.5674ZM25.7623 19V8.34891L24.5077 8.17327C24.2987 8.13145 24.1272 8.05618 23.9934 7.94745C23.8679 7.83873 23.8052 7.684 23.8052 7.48327V6.37927H25.7623V5.30036C25.7623 4.57273 25.8668 3.92036 26.0759 3.34327C26.2934 2.76618 26.5987 2.27691 26.9917 1.87545C27.3932 1.474 27.8783 1.16872 28.447 0.959633C29.0157 0.742179 29.6556 0.633451 30.3665 0.633451C30.6592 0.633451 30.9352 0.65436 31.1945 0.696178C31.4621 0.737997 31.7214 0.800724 31.9723 0.88436L31.9221 2.23927C31.9054 2.46509 31.7925 2.59891 31.5834 2.64073C31.3827 2.68254 31.1276 2.70345 30.8181 2.70345C30.4417 2.70345 30.103 2.74945 29.8019 2.84145C29.5008 2.92509 29.2416 3.07145 29.0241 3.28054C28.815 3.48963 28.6519 3.76563 28.5348 4.10854C28.4261 4.45145 28.3717 4.878 28.3717 5.38818V6.37927H31.8719V8.32382H28.4596V19H25.7623ZM33.3711 10.306H39.7317V12.5893H33.3711V10.306ZM45.6674 6.20363V19H42.9701V6.20363H45.6674ZM46.1191 2.33963C46.1191 2.58218 46.0689 2.81218 45.9685 3.02963C45.8765 3.24709 45.7469 3.43945 45.5796 3.60672C45.4123 3.76563 45.2158 3.89527 44.99 3.99563C44.7725 4.08763 44.5383 4.13363 44.2874 4.13363C44.0449 4.13363 43.8149 4.08763 43.5974 3.99563C43.3883 3.89527 43.2043 3.76563 43.0454 3.60672C42.8865 3.43945 42.7569 3.24709 42.6565 3.02963C42.5645 2.81218 42.5185 2.58218 42.5185 2.33963C42.5185 2.08872 42.5645 1.85454 42.6565 1.63709C42.7569 1.41963 42.8865 1.23145 43.0454 1.07254C43.2043 0.90527 43.3883 0.775633 43.5974 0.683634C43.8149 0.58327 44.0449 0.533087 44.2874 0.533087C44.5383 0.533087 44.7725 0.58327 44.99 0.683634C45.2158 0.775633 45.4123 0.90527 45.5796 1.07254C45.7469 1.23145 45.8765 1.41963 45.9685 1.63709C46.0689 1.85454 46.1191 2.08872 46.1191 2.33963ZM55.8937 13.4047C54.9319 13.4382 54.1206 13.5176 53.4599 13.6431C52.7992 13.7602 52.2639 13.9149 51.8541 14.1073C51.4443 14.2913 51.1474 14.5129 50.9634 14.7722C50.7877 15.0315 50.6999 15.3158 50.6999 15.6253C50.6999 15.9264 50.7459 16.1856 50.8379 16.4031C50.9383 16.6122 51.0721 16.7878 51.2394 16.93C51.415 17.0638 51.6157 17.1642 51.8415 17.2311C52.0757 17.2896 52.3308 17.3189 52.6068 17.3189C53.3094 17.3189 53.9115 17.1893 54.4134 16.93C54.9235 16.6624 55.417 16.2776 55.8937 15.7758V13.4047ZM48.7428 7.98509C50.1897 6.63854 51.9126 5.96527 53.9115 5.96527C54.6475 5.96527 55.2999 6.08654 55.8686 6.32909C56.4457 6.56327 56.9266 6.89782 57.3114 7.33273C57.7045 7.76763 58.0014 8.28618 58.2021 8.88836C58.4112 9.48218 58.5157 10.1429 58.5157 10.8705V19H57.3114C57.0521 19 56.8555 18.9624 56.7217 18.8871C56.5879 18.8035 56.475 18.6404 56.383 18.3978L56.1195 17.3565C55.7934 17.6493 55.4714 17.9127 55.1535 18.1469C54.8357 18.3727 54.5054 18.5651 54.1625 18.724C53.8279 18.8829 53.4641 19 53.071 19.0753C52.6863 19.1589 52.2597 19.2007 51.7914 19.2007C51.2728 19.2007 50.7877 19.1296 50.3361 18.9875C49.8928 18.8453 49.5081 18.632 49.1819 18.3476C48.8557 18.0549 48.5965 17.6953 48.4041 17.2687C48.2201 16.8422 48.1281 16.3404 48.1281 15.7633C48.1281 15.2698 48.2577 14.7889 48.517 14.3205C48.7846 13.8522 49.2195 13.434 49.8217 13.066C50.4323 12.6896 51.231 12.3802 52.2179 12.1376C53.2132 11.8951 54.4385 11.7571 55.8937 11.7236V10.8705C55.8937 9.95054 55.6972 9.26473 55.3041 8.81309C54.911 8.36145 54.3339 8.13563 53.5728 8.13563C53.0543 8.13563 52.6194 8.20254 52.2681 8.33636C51.9168 8.46182 51.6115 8.59982 51.3523 8.75036C51.093 8.90091 50.863 9.04309 50.6623 9.17691C50.4615 9.30236 50.2483 9.36509 50.0225 9.36509C49.8385 9.36509 49.6795 9.31909 49.5457 9.22709C49.4203 9.12673 49.3157 9.00545 49.2321 8.86327L48.7428 7.98509ZM64.1971 7.89727C64.4731 7.61291 64.7574 7.35782 65.0501 7.132C65.3512 6.89782 65.6691 6.69709 66.0036 6.52982C66.3381 6.36254 66.6936 6.23291 67.07 6.14091C67.4463 6.04891 67.8562 6.00291 68.2994 6.00291C69.002 6.00291 69.6167 6.12 70.1436 6.35418C70.6789 6.58836 71.1263 6.91873 71.486 7.34527C71.854 7.77182 72.13 8.28618 72.314 8.88836C72.498 9.48218 72.59 10.1387 72.59 10.858V19H69.9052V10.858C69.9052 9.99654 69.7045 9.32745 69.3031 8.85073C68.91 8.374 68.3078 8.13563 67.4965 8.13563C66.8943 8.13563 66.334 8.27363 65.8154 8.54963C65.3052 8.82563 64.8243 9.202 64.3727 9.67873V19H61.6754V6.20363H63.3063C63.6743 6.20363 63.9085 6.37509 64.0089 6.718L64.1971 7.89727Z" fill="white"/>
</g>
<defs>
<clipPath id="clip0_2261_14">
<rect width="83" height="20" fill="white"/>
</clipPath>
</defs>
</svg>
